<svg xmlns="http://www.w3.org/2000/svg" xml:space="preserve" style="enable-background:new 0 0 53 52" viewBox="0 0 53 52"><g transform="translate(0 -19.74)"><radialGradient id="a" cx="-209.131" cy="301.038" r=".714" gradientTransform="matrix(13.4927 18.9232 9.3617 -6.6751 30.118 6007.4)" gradientUnits="userSpaceOnUse"><stop offset="0" style="stop-color:#cdae74"/><stop offset="1" style="stop-color:#946f3b"/></radialGradient><path d="M39.5 42.7c-.8 0-1.4-.6-1.4-1.4s.6-1.4 1.4-1.4 1.4.6 1.4 1.4-.6 1.4-1.4 1.4zm-2.8 2.8c-.8 0-1.4-.6-1.4-1.4 0-.8.6-1.4 1.4-1.4.8 0 1.4.6 1.4 1.4.1.8-.6 1.4-1.4 1.4zm-2.8-2.8c-.8 0-1.4-.6-1.4-1.4s.6-1.4 1.4-1.4c.8 0 1.4.6 1.4 1.4s-.6 1.4-1.4 1.4zm-17.3-5.2c.5 0 .9.4.9.9v1.7h1.7c.5 0 .9.4.9.9v.7c0 .5-.4.9-.9.9h-1.7v1.7c0 .5-.4.9-.9.9h-.7c-.5 0-.9-.4-.9-.9v-1.7h-1.7c-.5 0-.9-.4-.9-.9V41c0-.5.4-.9.9-.9H15v-1.7c0-.5.4-.9.9-.9h.7zm20.1-.4c.8 0 1.4.6 1.4 1.4 0 .8-.6 1.4-1.4 1.4-.8 0-1.4-.6-1.4-1.4 0-.8.6-1.4 1.4-1.4zm-1.5-3c4-.7 7.8 2 8.4 6l1.9 14c0 1.7-.8 3.3-2.3 4.2-2.3 1.6-5.5.9-7.1-1.4l-2.8-4.6c.7 0 1.4-.2 2-.6 1.6-1.1 2-3.3.9-4.9-1.1-1.6-3.3-2-4.9-.9-1.9 0-3.5 1.5-3.5 3.5h-2.7c0-1.9-1.6-3.5-3.5-3.5-.8 0-1.5.3-2.1.7-1.9 0-3.4 1.5-3.5 3.3v.2c0 1.7 1.2 3.1 2.9 3.5L16.8 57c-.9 1.4-2.5 2.3-4.2 2.3-2.8 0-5.1-2.3-5.1-5.1l1.9-14c.3-1.5 1-3 2.1-4 2.9-2.8 7.5-2.7 10.3.1h9.3c1.1-1.2 2.5-1.9 4.1-2.2zm-3.8 12.7c1.5 0 2.7 1.2 2.7 2.7 0 1.5-1.2 2.7-2.7 2.7-1.5 0-2.7-1.2-2.7-2.7-.1-1.5 1.2-2.7 2.7-2.7zm-9.8 0c1.5 0 2.7 1.2 2.7 2.7 0 1.5-1.2 2.7-2.7 2.7-1.5 0-2.7-1.2-2.7-2.7v-.2c.1-1.4 1.3-2.5 2.7-2.5z" style="fill-rule:evenodd;clip-rule:evenodd;fill:url(#a)"/></g></svg>